<?xml version="1.0" encoding="UTF-8"?>
<svg version="1.1" xmlns="http://www.w3.org/2000/svg" width="180" height="180">
<path d="M0 0 C59.4 0 118.8 0 180 0 C180 59.4 180 118.8 180 180 C120.6 180 61.2 180 0 180 C0 120.6 0 61.2 0 0 Z " fill="#F68B22" transform="translate(0,0)"/>
<path d="M0 0 C0.99 0.99 1.98 1.98 3 3 C2.01 3.495 2.01 3.495 1 4 C-1.39373959 5.99494452 -1.39373959 5.99494452 -1.5625 9.875 C-1.36092962 12.92655159 -0.94227222 14.09621297 0.6875 16.8125 C5.7000578 20.12267968 11.14678327 20.9459068 17 22 C17 23.32 17 24.64 17 26 C14.47524538 27.26237731 12.68799534 27.09856404 9.875 27.0625 C8.96492187 27.05347656 8.05484375 27.04445312 7.1171875 27.03515625 C6.06917969 27.01775391 6.06917969 27.01775391 5 27 C4.67 25.68 4.34 24.36 4 23 C1.69 23 -0.62 23 -3 23 C-1.25465958 28.22357167 -1.25465958 28.22357167 2.625 31.9375 C8.25066424 33.70854245 12.90659225 33.79930114 18.4375 31.6875 C21.21821686 30.09498436 21.21821686 30.09498436 23 27 C23.57075609 23.2493171 23.34180314 21.54435315 21.3125 18.3125 C17.02633045 14.42737555 10.49072467 13.98881279 5 13 C5.33 11.35 5.66 9.7 6 8 C8.97 8 11.94 8 15 8 C15.33 8.99 15.66 9.98 16 11 C18.31 11 20.62 11 23 11 C21.22380973 5.53510379 21.22380973 5.53510379 16.8125 2.0625 C15.884375 1.711875 14.95625 1.36125 14 1 C14 0.67 14 0.34 14 0 C21.92 0 29.84 0 38 0 C36.68 0.99 35.36 1.98 34 3 C28.02730162 7.55740944 28.02730162 7.55740944 25.69921875 14.3671875 C25.67085775 20.4364414 26.01422817 24.87323339 30.40625 29.47265625 C34.58572385 33.01140887 38.23461325 33.66281772 43.640625 33.3515625 C48.82232987 32.57945416 52.75720389 30.19575132 56.04296875 26.0859375 C57.81701854 22.21923306 57.61617529 18.02304419 57.6640625 13.828125 C57.77492187 12.89484375 57.88578125 11.9615625 58 11 C58.99 10.34 59.98 9.68 61 9 C61 20.22 61 31.44 61 43 C64.465 42.505 64.465 42.505 68 42 C68.33 31.11 68.66 20.22 69 9 C72.63 9 76.26 9 80 9 C80 20.22 80 31.44 80 43 C82.31 43 84.62 43 87 43 C87 31.78 87 20.56 87 9 C87.99 9.495 87.99 9.495 89 10 C89 12.97 89 15.94 89 19 C90.9451 16.08235 91.45276317 14.37462715 92 11 C92.33 11 92.66 11 93 11 C93.33 18.26 93.66 25.52 94 33 C95.65 33.33 97.3 33.66 99 34 C99.495 36.475 99.495 36.475 100 39 C101.32 39 102.64 39 104 39 C104 38.01 104 37.02 104 36 C105.98 36.33 107.96 36.66 110 37 C108.18585949 35.18585949 105.45040946 35.3649546 103 35 C103 34.67 103 34.34 103 34 C105.31 34 107.62 34 110 34 C109.98428955 33.31897217 109.9685791 32.63794434 109.95239258 31.9362793 C109.89006778 28.85343719 109.85101742 25.77072756 109.8125 22.6875 C109.78736328 21.61564453 109.76222656 20.54378906 109.73632812 19.43945312 C109.72666016 18.41142578 109.71699219 17.38339844 109.70703125 16.32421875 C109.6913208 15.37635498 109.67561035 14.42849121 109.65942383 13.4519043 C110 11 110 11 111.3972168 9.19213867 C113.39120028 7.70902803 114.53326631 7.59696894 117 7.625 C118.0209375 7.61339844 118.0209375 7.61339844 119.0625 7.6015625 C121.62354793 8.12822961 122.39957365 8.94486577 124 11 C124.34057617 13.36010742 124.34057617 13.36010742 124.29296875 16.10546875 C124.28330078 17.08837891 124.27363281 18.07128906 124.26367188 19.08398438 C124.23853516 20.10814453 124.21339844 21.13230469 124.1875 22.1875 C124.17396484 23.22326172 124.16042969 24.25902344 124.14648438 25.32617188 C124.11111389 27.88463699 124.06175544 30.4420578 124 33 C126.31 33 128.62 33 131 33 C130.67 24.42 130.34 15.84 130 7 C130.33 7 130.66 7 131 7 C131.33 5.02 131.66 3.04 132 1 C132.33 1 132.66 1 133 1 C133 11.56 133 22.12 133 33 C135.31 33 137.62 33 140 33 C140 29.37 140 25.74 140 22 C140.99 22 141.98 22 143 22 C143.5878125 23.36125 143.5878125 23.36125 144.1875 24.75 C146.40798082 28.73155182 148.93860016 30.96930008 153 33 C158.30846237 33.61623941 163.39020514 33.94817972 168 30.9375 C173.34534269 26.37221928 174.3181401 20.40066818 174.88671875 13.72265625 C174.92410156 13.15417969 174.96148437 12.58570313 175 12 C175.33 12 175.66 12 176 12 C176 25.2 176 38.4 176 52 C116.6 52 57.2 52 -4 52 C-4 35.17 -4 18.34 -4 1 C-2.68 1.33 -1.36 1.66 0 2 C0 1.34 0 0.68 0 0 Z M95 36 C95 36.66 95 37.32 95 38 C95.66 38 96.32 38 97 38 C97 37.34 97 36.68 97 36 C96.34 36 95.68 36 95 36 Z " fill="#F16B20" transform="translate(4,128)"/>
<path d="M0 0 C0.82638376 2.89234315 1 4.88742431 1 8 C2.90735262 9.22483938 2.90735262 9.22483938 4.75 8.5625 C7.65617598 7.835956 10.01582866 7.68253496 13 8 C15.04040776 10.04040776 16 11.08325244 16 14 C16.66 14 17.32 14 18 14 C17.95875 13.21625 17.9175 12.4325 17.875 11.625 C18 9 18 9 20 7 C22.625 6.875 22.625 6.875 25 7 C26.1875 9.25 26.1875 9.25 27 12 C25.625 14.3125 25.625 14.3125 24 16 C24.33 16.33 24.66 16.66 25 17 C25.0883967 19.3756852 25.11530305 21.72208674 25.09765625 24.09765625 C25.0962413 24.80651474 25.09482635 25.51537323 25.09336853 26.24571228 C25.08775443 28.51801712 25.07519963 30.79022475 25.0625 33.0625 C25.05748681 34.59960796 25.05292359 36.13671745 25.04882812 37.67382812 C25.03778042 41.44925642 25.02050641 45.22461171 25 49 C21.625 49.1875 21.625 49.1875 18 49 C15.81005752 45.71508627 15.64722661 44.16904361 15.375 40.3125 C15.30023438 39.31863281 15.22546875 38.32476562 15.1484375 37.30078125 C15.07496094 36.16189453 15.07496094 36.16189453 15 35 C14.67 38.3 14.34 41.6 14 45 C13.67 45 13.34 45 13 45 C13.00523682 44.42967041 13.01047363 43.85934082 13.01586914 43.27172852 C13.03658221 40.70199677 13.0496419 38.13228253 13.0625 35.5625 C13.07087891 34.66466797 13.07925781 33.76683594 13.08789062 32.84179688 C13.09111328 31.98779297 13.09433594 31.13378906 13.09765625 30.25390625 C13.10289307 29.46314697 13.10812988 28.6723877 13.11352539 27.85766602 C13.20495909 25.98407311 13.20495909 25.98407311 12 25 C12 36.22 12 47.44 12 59 C9.69 59 7.38 59 5 59 C5 47.78 5 36.56 5 25 C1.37 25 -2.26 25 -6 25 C-5.99476318 25.99443115 -5.98952637 26.9888623 -5.98413086 28.01342773 C-5.96607959 31.69033921 -5.95456754 35.36724675 -5.94506836 39.04418945 C-5.94002843 40.63794614 -5.9331965 42.23169819 -5.92456055 43.82543945 C-5.91248001 46.11150253 -5.90676845 48.39750467 -5.90234375 50.68359375 C-5.89718246 51.40026718 -5.89202118 52.11694061 -5.88670349 52.85533142 C-5.88650737 54.57063672 -5.93807993 56.28581266 -6 58 C-6.495 58.495 -6.495 58.495 -7 59 C-8.98 59 -10.96 59 -13 59 C-13 47.45 -13 35.9 -13 24 C-13.99 24 -14.98 24 -16 24 C-16 22.02 -16 20.04 -16 18 C-15.01 18 -14.02 18 -13 18 C-13.01160156 17.31292969 -13.02320312 16.62585938 -13.03515625 15.91796875 C-13.04417969 15.01691406 -13.05320312 14.11585937 -13.0625 13.1875 C-13.07410156 12.29417969 -13.08570312 11.40085937 -13.09765625 10.48046875 C-13 8 -13 8 -12 5 C-12.66 4.67 -13.32 4.34 -14 4 C-9.33286748 0.166284 -5.97171665 -0.13572083 0 0 Z " fill="#F07C26" transform="translate(79,112)"/>
<path d="M0 0 C1.2684375 0.12375 1.2684375 0.12375 2.5625 0.25 C4.94475541 3.82338312 4.80283109 5.45621014 4.75 9.6875 C4.74355469 10.82058594 4.73710938 11.95367187 4.73046875 13.12109375 C4.59279419 15.68568261 4.31172106 17.81053624 3.5625 20.25 C4.5525 19.92 5.5425 19.59 6.5625 19.25 C6.8925 17.6 7.2225 15.95 7.5625 14.25 C6.9025 13.92 6.2425 13.59 5.5625 13.25 C5.8125 10.375 5.8125 10.375 6.5625 7.25 C8.375 5.8125 8.375 5.8125 10.5625 5.25 C14.0625 5.75 14.0625 5.75 15.5625 7.25 C15.79537008 8.93183948 15.97514166 10.6212416 16.125 12.3125 C16.20878906 13.23160156 16.29257813 14.15070312 16.37890625 15.09765625 C16.43949219 15.80792969 16.50007813 16.51820312 16.5625 17.25 C17.8825 17.25 19.2025 17.25 20.5625 17.25 C20.5625 19.56 20.5625 21.87 20.5625 24.25 C19.5725 24.58 18.5825 24.91 17.5625 25.25 C17.376875 26.85875 17.376875 26.85875 17.1875 28.5 C16.66606064 31.62863615 16.16161746 33.58480424 14.5625 36.25 C12.9228125 36.1571875 12.9228125 36.1571875 11.25 36.0625 C7.67172093 35.90576732 7.67172093 35.90576732 5.6875 37.625 C4.49768188 39.26178511 4.49768188 39.26178511 3.5625 41.25 C1.5825 41.25 -0.3975 41.25 -2.4375 41.25 C-2.7675 39.93 -3.0975 38.61 -3.4375 37.25 C-4.13617188 37.27320313 -4.83484375 37.29640625 -5.5546875 37.3203125 C-6.46476562 37.33835938 -7.37484375 37.35640625 -8.3125 37.375 C-9.66988281 37.40980469 -9.66988281 37.40980469 -11.0546875 37.4453125 C-13.4375 37.25 -13.4375 37.25 -15.4375 35.25 C-15.47991723 32.91705225 -15.47842937 30.58297433 -15.4375 28.25 C-15.7675 27.26 -16.0975 26.27 -16.4375 25.25 C-18.45258358 24.51676204 -18.45258358 24.51676204 -20.4375 24.25 C-20.4375 22.27 -20.4375 20.29 -20.4375 18.25 C-19.4784375 18.0025 -19.4784375 18.0025 -18.5 17.75 C-17.819375 17.255 -17.13875 16.76 -16.4375 16.25 C-16.14848067 14.2268647 -15.86564337 12.20062726 -15.6953125 10.1640625 C-15.4375 8.25 -15.4375 8.25 -14.25 6.1875 C-11.48453299 4.75708603 -9.37039209 5.53307082 -6.4375 6.25 C-6.4375 7.24 -6.4375 8.23 -6.4375 9.25 C-5.7775 9.25 -5.1175 9.25 -4.4375 9.25 C-4.293125 7.950625 -4.14875 6.65125 -4 5.3125 C-3.44902738 0.3537464 -3.44902738 0.3537464 0 0 Z " fill="#F58E29" transform="translate(90.4375,35.75)"/>
<path d="M0 0 C5.01791684 2.41935276 8.49958655 5.9991731 11 11 C11.68448516 16.05585632 12.14684613 20.93244641 9.61328125 25.5 C5.80322815 29.99602795 2.63432362 32.49523283 -3.25 33.3125 C-8.14235035 33.67047685 -11.38130133 33.23379685 -15.4375 30.375 C-19.38375253 26.94694225 -21.62306107 23.92008386 -22.30859375 18.609375 C-22.59200559 12.87243224 -21.92067505 9.43655335 -18 5 C-17.175 4.05125 -16.35 3.1025 -15.5 2.125 C-11.03694954 -1.39306784 -5.34974796 -0.79364393 0 0 Z " fill="#FBF6F2" transform="translate(51,129)"/>
<path d="M0 0 C4.56897752 2.61391347 8.04174199 6.07124433 10 11 C10.83868746 16.89259633 9.96210779 21.79077595 7 27 C1.62253334 31.97415666 -2.05845409 33.45918297 -9.2734375 33.31640625 C-14.36935568 32.72504612 -16.99483874 30.11382734 -20.3125 26.4375 C-23.7614759 21.45564593 -23.98979107 15.85892454 -23 10 C-17.68420976 0.91642438 -10.20043455 -1.73485652 0 0 Z " fill="#FBF6F1" transform="translate(169,129)"/>
<path d="M0 0 C3.47405263 1.69996316 4.82700343 2.74050515 7 6 C7 7.32 7 8.64 7 10 C4.69 10 2.38 10 0 10 C-0.33 9.34 -0.66 8.68 -1 8 C-3.97 8 -6.94 8 -10 8 C-10.33 9.32 -10.66 10.64 -11 12 C-9.67935547 12.14695313 -9.67935547 12.14695313 -8.33203125 12.296875 C-7.17058594 12.44640625 -6.00914063 12.5959375 -4.8125 12.75 C-3.08966797 12.95882812 -3.08966797 12.95882812 -1.33203125 13.171875 C2.38782817 14.09638871 4.25313166 15.36863069 7 18 C8.42662219 20.85324437 8.31033868 22.83454549 8 26 C5.59494159 29.91935444 3.4752557 31.90604861 -1 33 C-6.73484159 33.59472431 -11.0692062 33.28719587 -16 30 C-18.88092425 27.02304494 -19 26.33178252 -19 22 C-16.69 22 -14.38 22 -12 22 C-11.67 22.99 -11.34 23.98 -11 25 C-7.04 25 -3.08 25 1 25 C1 23.68 1 22.36 1 21 C0.11957031 20.90203125 -0.76085937 20.8040625 -1.66796875 20.703125 C-2.82941406 20.55359375 -3.99085937 20.4040625 -5.1875 20.25 C-6.33605469 20.11078125 -7.48460937 19.9715625 -8.66796875 19.828125 C-12.38782817 18.90361129 -14.25313166 17.63136931 -17 15 C-18.62911419 11.74177162 -18.66435104 8.50965244 -18 5 C-13.4041513 -1.12779826 -7.26301626 -1.17303089 0 0 Z " fill="#FAF4EE" transform="translate(20,129)"/>
<path d="M0 0 C4.10063529 0.0649863 6.54768527 0.50515881 9.75 3.25 C14.68764513 8.77870763 14.22940198 13.9605996 14 21.125 C13.98195312 22.19492188 13.96390625 23.26484375 13.9453125 24.3671875 C13.89837439 26.99572178 13.83272933 29.62238913 13.75 32.25 C11.44 32.25 9.13 32.25 6.75 32.25 C6.73018066 31.59402832 6.71036133 30.93805664 6.68994141 30.26220703 C6.59487493 27.29938931 6.48512248 24.33729468 6.375 21.375 C6.3440625 20.34246094 6.313125 19.30992187 6.28125 18.24609375 C6.24257812 17.25996094 6.20390625 16.27382812 6.1640625 15.2578125 C6.11693115 13.89100342 6.11693115 13.89100342 6.06884766 12.49658203 C5.95117489 10.05068814 5.95117489 10.05068814 3.75 8.25 C1.83993694 7.9323754 1.83993694 7.9323754 -0.25 8 C-0.95125 7.99484375 -1.6525 7.9896875 -2.375 7.984375 C-4.4935669 8.09294485 -4.4935669 8.09294485 -6.25 10.25 C-6.62051993 12.5745339 -6.62051993 12.5745339 -6.6640625 15.2578125 C-6.70273438 16.24394531 -6.74140625 17.23007813 -6.78125 18.24609375 C-6.8121875 19.27863281 -6.843125 20.31117188 -6.875 21.375 C-6.91367188 22.41527344 -6.95234375 23.45554688 -6.9921875 24.52734375 C-7.08664766 27.10138311 -7.17221214 29.67541155 -7.25 32.25 C-9.56 32.25 -11.87 32.25 -14.25 32.25 C-14.25 22.02 -14.25 11.79 -14.25 1.25 C-11.28 1.25 -8.31 1.25 -5.25 1.25 C-3.68966377 -0.31033623 -2.16052864 0.04292441 0 0 Z " fill="#FCEEE7" transform="translate(121.25,128.75)"/>
<path d="M0 0 C1.98 0 3.96 0 6 0 C6.2475 1.27875 6.495 2.5575 6.75 3.875 C7.51990586 7.26747318 7.51990586 7.26747318 10.125 9.5 C10.74375 9.665 11.3625 9.83 12 10 C11.0925 10.556875 10.185 11.11375 9.25 11.6875 C5.9322643 14.04819656 4.02325619 15.47803553 2 19 C1.38462842 22.66120232 1.12986992 26.29221384 1 30 C0.34 30 -0.32 30 -1 30 C-1 33.63 -1 37.26 -1 41 C-3.31 41 -5.62 41 -8 41 C-8.33 33.08 -8.66 25.16 -9 17 C-9.99 16.67 -10.98 16.34 -12 16 C-13.33333333 14.33333333 -14.66666667 12.66666667 -16 11 C-16.99 10.67 -17.98 10.34 -19 10 C-18.67 8.68 -18.34 7.36 -18 6 C-17.67 6.66 -17.34 7.32 -17 8 C-15.02 8 -13.04 8 -11 8 C-10.67 5.69 -10.34 3.38 -10 1 C-9.690625 1.639375 -9.38125 2.27875 -9.0625 2.9375 C-8.1654837 4.93610821 -8.1654837 4.93610821 -7 6 C-5.33382885 6.04063832 -3.66611905 6.042721 -2 6 C-1.34 4.02 -0.68 2.04 0 0 Z " fill="#F37822" transform="translate(145,120)"/>
<path d="M0 0 C-0.51152368 3.78527521 -1.20845842 5.44108688 -4 8 C-5.44440034 12.33320102 -5.54168843 16.4714847 -5 21 C-3.20353146 23.93423195 -2.0558929 25.47205355 1 27 C6.03760382 27.57619651 11.3168415 28.12024176 15.625 25.0625 C18.7420429 21.04315521 19.23947541 18.0118782 19 13 C18.62602046 10.35261852 18.04596456 8.51031495 17 6 C16.01 5.67 15.02 5.34 14 5 C13.3125 2.9375 13.3125 2.9375 13 1 C15.29778673 -0.3950848 16.4792967 -1.07438619 19.1875 -0.6875 C21 0 21 0 22 1 C22.23287008 2.68183948 22.41264166 4.3712416 22.5625 6.0625 C22.64628906 6.98160156 22.73007813 7.90070312 22.81640625 8.84765625 C22.87699219 9.55792969 22.93757813 10.26820312 23 11 C24.32 11 25.64 11 27 11 C27 13.31 27 15.62 27 18 C26.01 18.33 25.02 18.66 24 19 C23.814375 20.60875 23.814375 20.60875 23.625 22.25 C23.10356064 25.37863615 22.59911746 27.33480424 21 30 C19.3603125 29.9071875 19.3603125 29.9071875 17.6875 29.8125 C14.10922093 29.65576732 14.10922093 29.65576732 12.125 31.375 C10.93518188 33.01178511 10.93518188 33.01178511 10 35 C8.02 35 6.04 35 4 35 C3.67 33.68 3.34 32.36 3 31 C2.30132812 31.02320313 1.60265625 31.04640625 0.8828125 31.0703125 C-0.02726562 31.08835938 -0.93734375 31.10640625 -1.875 31.125 C-3.23238281 31.15980469 -3.23238281 31.15980469 -4.6171875 31.1953125 C-7 31 -7 31 -9 29 C-9.04241723 26.66705225 -9.04092937 24.33297433 -9 22 C-9.33 21.01 -9.66 20.02 -10 19 C-12.01508358 18.26676204 -12.01508358 18.26676204 -14 18 C-14 16.02 -14 14.04 -14 12 C-13.360625 11.835 -12.72125 11.67 -12.0625 11.5 C-11.381875 11.005 -10.70125 10.51 -10 10 C-9.71098067 7.9768647 -9.42814337 5.95062726 -9.2578125 3.9140625 C-9 2 -9 2 -7.8125 -0.0625 C-5.04703299 -1.49291397 -2.93289209 -0.71692918 0 0 Z " fill="#FAEFE4" transform="translate(84,42)"/>
<path d="M0 0 C2.31 0 4.62 0 7 0 C7 1.98 7 3.96 7 6 C8.65 6 10.3 6 12 6 C12 8.31 12 10.62 12 13 C10.35 13 8.7 13 7 13 C7 24.55 7 36.1 7 48 C4.69 48 2.38 48 0 48 C0 36.45 0 24.9 0 13 C-1.98 13 -3.96 13 -6 13 C-6 11.02 -6 9.04 -6 7 C-4.02 7 -2.04 7 0 7 C0 4.69 0 2.38 0 0 Z " fill="#FAF7F2" transform="translate(84,123)"/>
<path d="M0 0 C0.625 1.8125 0.625 1.8125 1 4 C0.01 5.485 0.01 5.485 -1 7 C-2.32 7 -3.64 7 -5 7 C-5 9.31 -5 11.62 -5 14 C-3.35 14 -1.7 14 0 14 C0 15.98 0 17.96 0 20 C-1.65 20 -3.3 20 -5 20 C-5 31.55 -5 43.1 -5 55 C-6.98 55 -8.96 55 -11 55 C-11 43.45 -11 31.9 -11 20 C-11.99 20 -12.98 20 -14 20 C-14 18.02 -14 16.04 -14 14 C-13.01 14 -12.02 14 -11 14 C-11.04640625 13.32453125 -11.0928125 12.6490625 -11.140625 11.953125 C-11.43299415 4.72743018 -11.43299415 4.72743018 -9.4375 1.375 C-6.17757904 -0.46392977 -3.67887806 -0.28299062 0 0 Z " fill="#FBF9F5" transform="translate(77,116)"/>
<path d="M0 0 C1.98 0 3.96 0 6 0 C6 0.66 6 1.32 6 2 C6.639375 2.12375 7.27875 2.2475 7.9375 2.375 C8.618125 2.58125 9.29875 2.7875 10 3 C11.38100634 5.76201268 10.93187719 8.08996496 10.7421875 11.125 C10.82726562 11.74375 10.91234375 12.3625 11 13 C11.99 13.66 12.98 14.32 14 15 C14.33 13.68 14.66 12.36 15 11 C16.25664978 13.90600261 17 15.79604584 17 19 C12.88514582 22.93197177 10.09721207 24.35287953 4.375 24.5 C0.18643212 24.31563388 -2.68017259 23.74744338 -6 21 C-5.38125 20.855625 -4.7625 20.71125 -4.125 20.5625 C-1.96741678 20.06847775 -1.96741678 20.06847775 0 19 C0 17.68 0 16.36 0 15 C-0.66 14.34 -1.32 13.68 -2 13 C-2.265625 10.9765625 -2.265625 10.9765625 -2.25 8.625 C-2.25515625 7.85414063 -2.2603125 7.08328125 -2.265625 6.2890625 C-1.97688045 3.8007639 -1.24139229 2.15765802 0 0 Z " fill="#FAEAE0" transform="translate(158,138)"/>
<path d="M0 0 C0 1.32 0 2.64 0 4 C0.66 4 1.32 4 2 4 C1.71517632 5.41805831 1.42181856 6.83440379 1.125 8.25 C0.96257813 9.03890625 0.80015625 9.8278125 0.6328125 10.640625 C0.00849925 12.96831144 -0.84838542 14.89031952 -2 17 C-0.02 17.66 1.96 18.32 4 19 C4 18.34 4 17.68 4 17 C4.99 17.33 5.98 17.66 7 18 C2.33942132 21.69632102 -1.50039839 22.47011654 -7.359375 22.41015625 C-11.9228661 21.70132997 -14.87555543 19.28928338 -18 16 C-20.47337017 12.21265192 -21.3981914 9.51283588 -21 5 C-19.5393715 7.64738916 -19 8.89448334 -19 12 C-18.34 12 -17.68 12 -17 12 C-15.375 13.5 -15.375 13.5 -14 15 C-14.33 14.01 -14.66 13.02 -15 12 C-13.68 12.33 -12.36 12.66 -11 13 C-10.67 12.34 -10.34 11.68 -10 11 C-9.01 11 -8.02 11 -7 11 C-7.66 10.67 -8.32 10.34 -9 10 C-9 8.68 -9 7.36 -9 6 C-9.66 6 -10.32 6 -11 6 C-9.55449331 0.45889101 -9.55449331 0.45889101 -7.1875 -1.5 C-4.24054351 -2.17359005 -2.65220688 -1.32610344 0 0 Z " fill="#FBEBE0" transform="translate(50,140)"/>
<path d="M0 0 C3.41529114 0.2846076 4.78498424 0.79660671 7.3125 3.1875 C9.32835318 6.5472553 9.64220846 8.14674921 9 12 C6.59494159 15.91935444 4.4752557 17.90604861 0 19 C-5.73484159 19.59472431 -10.0692062 19.28719587 -15 16 C-17.88092425 13.02304494 -18 12.33178252 -18 8 C-15.69 8 -13.38 8 -11 8 C-10.67 8.99 -10.34 9.98 -10 11 C-6.04 11 -2.08 11 2 11 C2 9.68 2 8.36 2 7 C1.34 7 0.68 7 0 7 C0 5 0 5 2 3 C2 2.34 2 1.68 2 1 C1.34 0.67 0.68 0.34 0 0 Z " fill="#F9E9DE" transform="translate(19,143)"/>
<path d="M0 0 C2.31 0 4.62 0 7 0 C7 10.23 7 20.46 7 31 C4.69 31 2.38 31 0 31 C0 20.77 0 10.54 0 0 Z " fill="#FBECE3" transform="translate(137,130)"/>
<path d="M0 0 C1.2684375 0.12375 1.2684375 0.12375 2.5625 0.25 C4.95231361 3.83472042 4.80260257 5.50353765 4.75 9.75 C4.74355469 10.8946875 4.73710938 12.039375 4.73046875 13.21875 C4.5625 16.25 4.5625 16.25 3.5625 19.25 C1.17685923 18.67415568 -1.10432784 18.02772405 -3.4375 17.25 C-3.4375 17.91 -3.4375 18.57 -3.4375 19.25 C-4.860625 19.683125 -4.860625 19.683125 -6.3125 20.125 C-9.48961578 21.01825109 -9.48961578 21.01825109 -11.4375 23.25 C-12.2208257 15.26007787 -12.2208257 15.26007787 -9.0625 11.1875 C-6.4375 9.25 -6.4375 9.25 -4.4375 9.25 C-4.293125 7.950625 -4.14875 6.65125 -4 5.3125 C-3.44902738 0.3537464 -3.44902738 0.3537464 0 0 Z " fill="#F48D37" transform="translate(90.4375,35.75)"/>
<path d="M0 0 C7.92 0 15.84 0 24 0 C22.68 0.99 21.36 1.98 20 3 C14.59745752 7.21398314 12.25976456 9.53758619 11.375 16.25 C11.25125 17.4875 11.1275 18.725 11 20 C10.360625 19.195625 9.72125 18.39125 9.0625 17.5625 C7.59396498 15.7249496 7.59396498 15.7249496 6 14 C4.80375 14.185625 3.6075 14.37125 2.375 14.5625 C-1.96004507 15.18849929 -4.89949575 14.45226192 -9 13 C-8.67 11.35 -8.34 9.7 -8 8 C-5.03 8 -2.06 8 1 8 C1.33 8.99 1.66 9.98 2 11 C4.31 11 6.62 11 9 11 C7.22380973 5.53510379 7.22380973 5.53510379 2.8125 2.0625 C1.884375 1.711875 0.95625 1.36125 0 1 C0 0.67 0 0.34 0 0 Z " fill="#F47A2C" transform="translate(18,128)"/>
<path d="M0 0 C1.98 0 3.96 0 6 0 C6 10.23 6 20.46 6 31 C4.02 31 2.04 31 0 31 C0 20.77 0 10.54 0 0 Z " fill="#FCF7F2" transform="translate(98,130)"/>
<path d="M0 0 C0.78375 0.04125 1.5675 0.0825 2.375 0.125 C3.5625 2.375 3.5625 2.375 4.375 5.125 C3 7.4375 3 7.4375 1.375 9.125 C1.705 9.785 2.035 10.445 2.375 11.125 C0.395 11.125 -1.585 11.125 -3.625 11.125 C-3.625 21.355 -3.625 31.585 -3.625 42.125 C-7.0116371 38.7383629 -7.04463254 37.9912468 -7.3125 33.4375 C-7.37824219 32.44363281 -7.44398437 31.44976562 -7.51171875 30.42578125 C-7.54910156 29.66652344 -7.58648437 28.90726563 -7.625 28.125 C-7.955 31.425 -8.285 34.725 -8.625 38.125 C-8.955 38.125 -9.285 38.125 -9.625 38.125 C-9.61976318 37.55990723 -9.61452637 36.99481445 -9.60913086 36.41259766 C-9.58837578 33.8584097 -9.5753446 31.30423947 -9.5625 28.75 C-9.55412109 27.86054688 -9.54574219 26.97109375 -9.53710938 26.0546875 C-9.53388672 25.20390625 -9.53066406 24.353125 -9.52734375 23.4765625 C-9.52210693 22.69104004 -9.51687012 21.90551758 -9.51147461 21.09619141 C-9.49926047 19.04727332 -9.49926047 19.04727332 -10.625 17.125 C-8.975 17.125 -7.325 17.125 -5.625 17.125 C-5.57601562 16.06539062 -5.52703125 15.00578125 -5.4765625 13.9140625 C-5.40153291 12.52601503 -5.32598515 11.13799549 -5.25 9.75 C-5.2190625 9.05132812 -5.188125 8.35265625 -5.15625 7.6328125 C-4.72888688 0.22518509 -4.72888688 0.22518509 0 0 Z " fill="#F1742A" transform="translate(101.625,118.875)"/>
<path d="M0 0 C-2.40921705 2.40921705 -4.94334509 3.53812156 -8 5 C-7.67 5.66 -7.34 6.32 -7 7 C-15.12041791 9.16544478 -24.66627769 8.91131856 -32 5 C-31.34 3.35 -30.68 1.7 -30 0 C-28.22992286 -0.08114106 -26.45877902 -0.13925505 -24.6875 -0.1875 C-23.70136719 -0.22230469 -22.71523437 -0.25710937 -21.69921875 -0.29296875 C-19 0 -19 0 -17.14453125 1.38671875 C-16 3 -16 3 -16 5 C-14.02 5 -12.04 5 -10 5 C-9.71125 4.195625 -9.4225 3.39125 -9.125 2.5625 C-7.05707701 -2.14776903 -4.49406067 -0.87927274 0 0 Z " fill="#F69624" transform="translate(104,72)"/>
<path d="M0 0 C1.98 0 3.96 0 6 0 C6 0.66 6 1.32 6 2 C7.32 2.33 8.64 2.66 10 3 C10.1953125 9.0546875 10.1953125 9.0546875 10 11 C8 13 8 13 4.5625 13.3125 C1 13 1 13 -0.9375 11.875 C-2.49328953 9.12948906 -2.3168479 7.10510946 -2 4 C-1 1.625 -1 1.625 0 0 Z " fill="#F9F1EA" transform="translate(158,138)"/>
<path d="M0 0 C0.33 0 0.66 0 1 0 C1.33 6.27 1.66 12.54 2 19 C5.20275807 14.7296559 5.52022697 12.3064246 5.6875 7.25 C5.72166016 6.55261719 5.75582031 5.85523438 5.79101562 5.13671875 C5.87308295 3.42502892 5.93822919 1.7125424 6 0 C6.33 0 6.66 0 7 0 C7 11.22 7 22.44 7 34 C4.69 34 2.38 34 0 34 C0 22.78 0 11.56 0 0 Z " fill="#FBE1D6" transform="translate(84,137)"/>
<path d="M0 0 C0.66 0 1.32 0 2 0 C5.39900287 5.89160498 5.13515674 12.28000316 5.0625 18.875 C5.05798828 19.65875 5.05347656 20.4425 5.04882812 21.25 C5.03714093 23.16670014 5.01920908 25.08336048 5 27 C3.02 27 1.04 27 -1 27 C-1.1723784 17.95971078 -0.6331684 9.01134307 0 0 Z " fill="#FCF2EC" transform="translate(67,144)"/>
<path d="M0 0 C0.33 0 0.66 0 1 0 C1 2.31 1 4.62 1 7 C0.34 7 -0.32 7 -1 7 C-1 9.31 -1 11.62 -1 14 C-0.01 14 0.98 14 2 14 C2 25.55 2 37.1 2 49 C1.67 49 1.34 49 1 49 C0.9906543 48.14245117 0.98130859 47.28490234 0.97167969 46.40136719 C0.92758709 43.21027321 0.86593944 40.02013244 0.79248047 36.82958984 C0.76430901 35.45048349 0.74307528 34.07121682 0.72900391 32.69189453 C0.70752455 30.70577051 0.65876868 28.72000091 0.609375 26.734375 C0.58842773 25.54038086 0.56748047 24.34638672 0.54589844 23.11621094 C-0.10486722 19.40137515 -1.15922872 18.37889992 -4 16 C-4.804375 14.989375 -5.60875 13.97875 -6.4375 12.9375 C-8.84133341 10.18188609 -10.82747609 8.72222727 -14 7 C-14 6.67 -14 6.34 -14 6 C-9.38 6 -4.76 6 0 6 C0 4.02 0 2.04 0 0 Z " fill="#F29059" transform="translate(64,122)"/>
<path d="M0 0 C0.77988281 -0.01417969 1.55976562 -0.02835938 2.36328125 -0.04296875 C4.8907668 0.20765587 6.50468031 0.92376228 8.6875 2.1875 C8.3125 4.125 8.3125 4.125 7.6875 6.1875 C5.23778376 7.41235812 3.54515539 7.35472808 0.8125 7.375 C-0.48300781 7.39626953 -0.48300781 7.39626953 -1.8046875 7.41796875 C-4.4366288 7.17609252 -6.05230544 6.51733541 -8.3125 5.1875 C-8.6425 6.1775 -8.9725 7.1675 -9.3125 8.1875 C-9.3125 7.5275 -9.3125 6.8675 -9.3125 6.1875 C-10.6325 6.1875 -11.9525 6.1875 -13.3125 6.1875 C-13.3125 4.5375 -13.3125 2.8875 -13.3125 1.1875 C-12.013125 1.208125 -10.71375 1.22875 -9.375 1.25 C-8.02084367 1.27149454 -6.66493917 1.25898199 -5.3125 1.1875 C-3.74222683 -0.38277317 -2.16980053 0.01775614 0 0 Z " fill="#F9FAF7" transform="translate(121.3125,128.8125)"/>
<path d="M0 0 C-0.51340384 3.79918838 -1.2079868 5.43134786 -4 8 C-5.98579337 11.19933376 -6.49470643 14.29451382 -7 18 C-8.98 17.67 -10.96 17.34 -13 17 C-13 15.02 -13 13.04 -13 11 C-12.01 10.67 -11.02 10.34 -10 10 C-9.896875 8.741875 -9.79375 7.48375 -9.6875 6.1875 C-9.35723612 3.6703537 -9.08928064 2.15506637 -7.8125 -0.0625 C-5.04703299 -1.49291397 -2.93289209 -0.71692918 0 0 Z " fill="#F9F0E7" transform="translate(84,42)"/>
<path d="M0 0 C0 11.22 0 22.44 0 34 C-0.33 34 -0.66 34 -1 34 C-1.33 27.4 -1.66 20.8 -2 14 C-2.33 14 -2.66 14 -3 14 C-3.33 11.69 -3.66 9.38 -4 7 C-5.32 6.67 -6.64 6.34 -8 6 C-8.33 6.66 -8.66 7.32 -9 8 C-10 7 -10 7 -10.0625 3.9375 C-10.041875 2.968125 -10.02125 1.99875 -10 1 C-8 0 -8 0 0 0 Z " fill="#F37425" transform="translate(84,137)"/>
<path d="M0 0 C0.33 1.32 0.66 2.64 1 4 C1.66 4 2.32 4 3 4 C3.33 6.64 3.66 9.28 4 12 C4.33 11.34 4.66 10.68 5 10 C6.65 10.33 8.3 10.66 10 11 C10 11.66 10 12.32 10 13 C10.99 13.33 11.98 13.66 13 14 C12.25 18.75 12.25 18.75 10 21 C5.97412118 19.21072052 3.27783669 17.83635653 1 14 C-0.04976964 10.85069107 -0.10131595 8.61185544 -0.0625 5.3125 C-0.05347656 4.31863281 -0.04445312 3.32476562 -0.03515625 2.30078125 C-0.02355469 1.54152344 -0.01195312 0.78226563 0 0 Z " fill="#FBF2EB" transform="translate(146,139)"/>
<path d="M0 0 C0 1.32 0 2.64 0 4 C0.66 4 1.32 4 2 4 C2 4.66 2 5.32 2 6 C1.34 6 0.68 6 0 6 C0 6.99 0 7.98 0 9 C-4.43076923 11.09230769 -4.43076923 11.09230769 -7.3125 10.625 C-7.869375 10.41875 -8.42625 10.2125 -9 10 C-9 8.68 -9 7.36 -9 6 C-9.66 6 -10.32 6 -11 6 C-9.55449331 0.45889101 -9.55449331 0.45889101 -7.1875 -1.5 C-4.24054351 -2.17359005 -2.65220688 -1.32610344 0 0 Z " fill="#F17321" transform="translate(50,140)"/>
<path d="M0 0 C2.5 0.125 2.5 0.125 3.5 1.125 C3.57244053 3.14464199 3.58377188 5.16667124 3.5625 7.1875 C3.55347656 8.29222656 3.54445313 9.39695312 3.53515625 10.53515625 C3.52355469 11.38980469 3.51195313 12.24445312 3.5 13.125 C1.19 13.455 -1.12 13.785 -3.5 14.125 C-3.52685938 11.97923363 -3.54633088 9.83337355 -3.5625 7.6875 C-3.57410156 6.49253906 -3.58570312 5.29757813 -3.59765625 4.06640625 C-3.46840705 0.17342035 -3.46840705 0.17342035 0 0 Z " fill="#FBF7F3" transform="translate(90.5,35.875)"/>
<path d="M0 0 C0.33 0 0.66 0 1 0 C1 9.9 1 19.8 1 30 C3.97 30.33 6.94 30.66 10 31 C9.67 31.66 9.34 32.32 9 33 C9.66 33.33 10.32 33.66 11 34 C10.67 34.66 10.34 35.32 10 36 C8.02 35.34 6.04 34.68 4 34 C4 34.99 4 35.98 4 37 C2.68 37 1.36 37 0 37 C0 36.01 0 35.02 0 34 C-0.99 33.67 -1.98 33.34 -3 33 C-3.99 32.34 -4.98 31.68 -6 31 C-4.02 31 -2.04 31 0 31 C0 20.77 0 10.54 0 0 Z M-5 34 C-4.34 34 -3.68 34 -3 34 C-3 34.66 -3 35.32 -3 36 C-3.66 36 -4.32 36 -5 36 C-5 35.34 -5 34.68 -5 34 Z " fill="#F0854D" transform="translate(104,130)"/>
<path d="M0 0 C0.33 0 0.66 0 1 0 C1 1.98 1 3.96 1 6 C1.99 6 2.98 6 4 6 C4 5.34 4 4.68 4 4 C4.66 4 5.32 4 6 4 C6 4.66 6 5.32 6 6 C7.98 6 9.96 6 12 6 C12 6.33 12 6.66 12 7 C10.02 7 8.04 7 6 7 C6 8.98 6 10.96 6 13 C7.98 13 9.96 13 12 13 C12 13.33 12 13.66 12 14 C8.37 14 4.74 14 1 14 C1 24.89 1 35.78 1 47 C0.67 47 0.34 47 0 47 C0 35.78 0 24.56 0 13 C1.65 13 3.3 13 5 13 C5 11.02 5 9.04 5 7 C3.35 7 1.7 7 0 7 C0 4.69 0 2.38 0 0 Z " fill="#F69B73" transform="translate(72,123)"/>
<path d="M0 0 C4.94084137 4.78145939 4.94084137 4.78145939 5.11352539 8.33837891 C5.10828857 9.29147949 5.10305176 10.24458008 5.09765625 11.2265625 C5.09443359 12.2578125 5.09121094 13.2890625 5.08789062 14.3515625 C5.07951172 15.43179688 5.07113281 16.51203125 5.0625 17.625 C5.05798828 18.71296875 5.05347656 19.8009375 5.04882812 20.921875 C5.03701776 23.61463789 5.02054778 26.30729188 5 29 C4.67 29 4.34 29 4 29 C3.98018066 28.44014404 3.96036133 27.88028809 3.93994141 27.3034668 C3.84462217 24.76434146 3.73497247 22.22603112 3.625 19.6875 C3.5940625 18.80642578 3.563125 17.92535156 3.53125 17.01757812 C3.49257812 16.17001953 3.45390625 15.32246094 3.4140625 14.44921875 C3.3826416 13.66893311 3.3512207 12.88864746 3.31884766 12.0847168 C3.10412111 9.69844232 3.10412111 9.69844232 1 7 C1 6.01 1 5.02 1 4 C0.34 4 -0.32 4 -1 4 C-1 4.99 -1 5.98 -1 7 C-1.53625 6.690625 -2.0725 6.38125 -2.625 6.0625 C-5.3984957 4.82172561 -8.00042837 4.4090325 -11 4 C-11 3.67 -11 3.34 -11 3 C-10.06027344 3.05220703 -10.06027344 3.05220703 -9.1015625 3.10546875 C-8.28429687 3.13253906 -7.46703125 3.15960938 -6.625 3.1875 C-5.40683594 3.23970703 -5.40683594 3.23970703 -4.1640625 3.29296875 C-3.44992188 3.19628906 -2.73578125 3.09960938 -2 3 C-1.34 2.01 -0.68 1.02 0 0 Z " fill="#FBE5D6" transform="translate(130,132)"/>
<path d="M0 0 C3.65316671 1.24976756 4.78065836 1.67098753 7 5 C7 6.32 7 7.64 7 9 C4.69 9 2.38 9 0 9 C-0.33 8.34 -0.66 7.68 -1 7 C-2.45742463 6.91903197 -3.91612807 6.86082226 -5.375 6.8125 C-6.59316406 6.76029297 -6.59316406 6.76029297 -7.8359375 6.70703125 C-8.55007813 6.80371094 -9.26421875 6.90039062 -10 7 C-10.66 7.99 -11.32 8.98 -12 10 C-12 8.35 -12 6.7 -12 5 C-7.38 5 -2.76 5 2 5 C1.34 3.35 0.68 1.7 0 0 Z " fill="#F9E6DB" transform="translate(20,130)"/>
<path d="M0 0 C2.5625 0.1875 2.5625 0.1875 4.5625 2.1875 C4.00694444 6.74305556 4.00694444 6.74305556 2.5625 8.1875 C0.125 8.375 0.125 8.375 -2.4375 8.1875 C-3.0975 7.5275 -3.7575 6.8675 -4.4375 6.1875 C-3.71780303 0.28598485 -3.71780303 0.28598485 0 0 Z " fill="#F9F2EA" transform="translate(140.4375,118.8125)"/>
<path d="M0 0 C0.78375 0.04125 1.5675 0.0825 2.375 0.125 C3.5 2.4375 3.5 2.4375 4.375 5.125 C3.385 6.61 3.385 6.61 2.375 8.125 C-0.6875 8.375 -0.6875 8.375 -3.625 8.125 C-4.625 7.125 -4.625 7.125 -4.8125 4.6875 C-4.54653904 1.05270021 -3.63803315 0.17323967 0 0 Z " fill="#F9F1EA" transform="translate(101.625,118.875)"/>
<path d="M0 0 C0.82638376 2.89234315 1 4.88742431 1 8 C1.66 8.33 2.32 8.66 3 9 C1.68 9 0.36 9 -1 9 C-1.33 7.68 -1.66 6.36 -2 5 C-7.32170494 4.70437633 -7.32170494 4.70437633 -12 7 C-12 6.34 -12 5.68 -12 5 C-12.66 4.67 -13.32 4.34 -14 4 C-9.33286748 0.166284 -5.97171665 -0.13572083 0 0 Z " fill="#F47F25" transform="translate(79,112)"/>
<path d="M0 0 C-0.0721875 0.81082031 -0.144375 1.62164062 -0.21875 2.45703125 C-0.82252141 9.66035957 -1.13035532 16.77252181 -1 24 C-1.66 24 -2.32 24 -3 24 C-3 17.4 -3 10.8 -3 4 C-5.31 4 -7.62 4 -10 4 C-7.26634436 -0.10048346 -4.7993062 -1.59976873 0 0 Z " fill="#F1771E" transform="translate(147,126)"/>
<path d="M0 0 C0.76173392 4.3164922 1.16063604 7.74433453 0 12 C-0.66 12 -1.32 12 -2 12 C-2 11.01 -2 10.02 -2 9 C-3.32 9 -4.64 9 -6 9 C-5.4140625 2.84765625 -5.4140625 2.84765625 -5 1 C-3 0 -3 0 0 0 Z " fill="#F37B21" transform="translate(86,33)"/>
<path d="M0 0 C2.97 0 5.94 0 9 0 C10 4 10 4 9 6 C1.25 6.125 1.25 6.125 -1 5 C-0.67 3.35 -0.34 1.7 0 0 Z " fill="#F0731F" transform="translate(10,136)"/>
<path d="M0 0 C2.31 0 4.62 0 7 0 C7.73080266 1.97746603 8.39421747 3.98072489 9 6 C8.67 6.66 8.34 7.32 8 8 C5.9375 8.625 5.9375 8.625 4 9 C0 4.5 0 4.5 0 0 Z " fill="#FBDCCA" transform="translate(1,151)"/>
<path d="M0 0 C2.97 0.495 2.97 0.495 6 1 C6.33 1.99 6.66 2.98 7 4 C5.02 4 3.04 4 1 4 C1 14.23 1 24.46 1 35 C0.67 35 0.34 35 0 35 C-0.16800236 30.65860566 -0.32851981 26.31701785 -0.48217773 21.97509766 C-0.53547011 20.49878539 -0.59078903 19.02254481 -0.64819336 17.54638672 C-0.73046212 15.42170666 -0.80538335 13.29687349 -0.87890625 11.171875 C-0.9260376 9.8940918 -0.97316895 8.61630859 -1.02172852 7.29980469 C-1.00390727 4.59337842 -0.83306311 2.54687307 0 0 Z " fill="#F2956B" transform="translate(97,126)"/>
<path d="M0 0 C0.66 0 1.32 0 2 0 C1.67 2.97 1.34 5.94 1 9 C3.31 8.34 5.62 7.68 8 7 C7.67 4.69 7.34 2.38 7 0 C7.99 0.33 8.98 0.66 10 1 C10.1953125 7.0546875 10.1953125 7.0546875 10 9 C8 11 8 11 4.5625 11.3125 C1 11 1 11 -0.9375 9.875 C-2.48138276 7.15050101 -2.3267107 5.07108055 -2 2 C-1.34 1.34 -0.68 0.68 0 0 Z " fill="#F27127" transform="translate(158,140)"/>
<path d="M0 0 C0.33 0 0.66 0 1 0 C1 1.65 1 3.3 1 5 C1.9590625 4.7215625 1.9590625 4.7215625 2.9375 4.4375 C3.618125 4.293125 4.29875 4.14875 5 4 C5.33 4.33 5.66 4.66 6 5 C6.33 3.35 6.66 1.7 7 0 C7.33 0 7.66 0 8 0 C8.07347656 0.90492187 8.07347656 0.90492187 8.1484375 1.828125 C8.22320312 2.62734375 8.29796875 3.4265625 8.375 4.25 C8.44460937 5.03890625 8.51421875 5.8278125 8.5859375 6.640625 C9.01507113 9.085877 9.78600638 10.84836903 11 13 C10.01 13 9.02 13 8 13 C7.67 14.65 7.34 16.3 7 18 C6.34 17.67 5.68 17.34 5 17 C5.020625 15.906875 5.04125 14.81375 5.0625 13.6875 C5.18544452 10.05615809 5.18544452 10.05615809 4 7 C1.98491642 6.26676204 1.98491642 6.26676204 0 6 C0 4.02 0 2.04 0 0 Z " fill="#F8EDDF" transform="translate(70,54)"/>
<path d="M0 0 C0.99 0.99 1.98 1.98 3 3 C2.01 3.495 2.01 3.495 1 4 C-1.42144512 5.99685749 -1.42144512 5.99685749 -1.375 9.9375 C-1.22585596 13.05231594 -0.76283869 15.35574196 1 18 C-0.9375 17.6875 -0.9375 17.6875 -3 17 C-4.14077657 13.57767028 -4.09815117 10.91326783 -4.0625 7.3125 C-4.05347656 6.13300781 -4.04445313 4.95351562 -4.03515625 3.73828125 C-4.02355469 2.83464844 -4.01195312 1.93101562 -4 1 C-2.68 1.33 -1.36 1.66 0 2 C0 1.34 0 0.68 0 0 Z " fill="#F07A2E" transform="translate(4,128)"/>
<path d="M0 0 C0.4125 0.495 0.825 0.99 1.25 1.5 C3.12202338 3.43386092 3.12202338 3.43386092 7 3 C6.67 4.65 6.34 6.3 6 8 C5.01 8 4.02 8 3 8 C3 8.66 3 9.32 3 10 C2.01 10 1.02 10 0 10 C0 8.68 0 7.36 0 6 C-0.66 6 -1.32 6 -2 6 C-1.34 4.02 -0.68 2.04 0 0 Z " fill="#F1772E" transform="translate(41,140)"/>
<path d="M0 0 C1.65 0 3.3 0 5 0 C5.33 2.97 5.66 5.94 6 9 C4.35 9 2.7 9 1 9 C-1.09230769 4.56923077 -1.09230769 4.56923077 -0.625 1.6875 C-0.41875 1.130625 -0.2125 0.57375 0 0 Z " fill="#F5781C" transform="translate(107,120)"/>
<path d="M0 0 C0.66 0.33 1.32 0.66 2 1 C2.4140625 3.50390625 2.4140625 3.50390625 2.625 6.5625 C2.69976562 7.57441406 2.77453125 8.58632813 2.8515625 9.62890625 C2.90054688 10.41136719 2.94953125 11.19382812 3 12 C3.66 12 4.32 12 5 12 C4.67 13.98 4.34 15.96 4 18 C2.68 18.33 1.36 18.66 0 19 C0 18.01 0 17.02 0 16 C-0.66 15.67 -1.32 15.34 -2 15 C-1.01 15 -0.02 15 1 15 C0.67 10.05 0.34 5.1 0 0 Z " fill="#F38017" transform="translate(94,37)"/>
<path d="M0 0 C0 0.66 0 1.32 0 2 C-1.70940029 3.60228383 -3.53301528 5.01294742 -5.37109375 6.46484375 C-7.26558258 8.00756886 -7.26558258 8.00756886 -8 11 C-8.99 11.33 -9.98 11.66 -11 12 C-12.69321939 13.29944744 -14.36395804 14.62926214 -16 16 C-14.03466064 9.9253147 -7.26769621 0 0 0 Z " fill="#F07220" transform="translate(64,14)"/>
<path d="M0 0 C1.65 0 3.3 0 5 0 C5 7.26 5 14.52 5 22 C4.67 22 4.34 22 4 22 C4 16.72 4 11.44 4 6 C2.68 5.67 1.36 5.34 0 5 C0 3.35 0 1.7 0 0 Z " fill="#FAFCFB" transform="translate(138,130)"/>
<path d="M0 0 C2.20914 3.31371 2.22481553 4.3446021 2.125 8.1875 C2.10695313 9.08855469 2.08890625 9.98960937 2.0703125 10.91796875 C2.03550781 11.94857422 2.03550781 11.94857422 2 13 C0.02 13 -1.96 13 -4 13 C-3.34 12.67 -2.68 12.34 -2 12 C-2.33 10.02 -2.66 8.04 -3 6 C-2.34 5.67 -1.68 5.34 -1 5 C-0.34444881 2.47266765 -0.34444881 2.47266765 0 0 Z " fill="#FBEBE0" transform="translate(70,158)"/>
<path d="M0 0 C0.33 0 0.66 0 1 0 C1.33 7.59 1.66 15.18 2 23 C0.68 22.34 -0.64 21.68 -2 21 C-2 15.72 -2 10.44 -2 5 C-1.67 5 -1.34 5 -1 5 C-0.67 3.35 -0.34 1.7 0 0 Z " fill="#F36B0F" transform="translate(96,139)"/>
<path d="M0 0 C0.99 0.33 1.98 0.66 3 1 C2.25 5.75 2.25 5.75 0 8 C-2.625 7.625 -2.625 7.625 -5 7 C-5.680625 7.99 -5.680625 7.99 -6.375 9 C-6.91125 9.66 -7.4475 10.32 -8 11 C-8.66 11 -9.32 11 -10 11 C-10 9.68 -10 8.36 -10 7 C-9.01 7 -8.02 7 -7 7 C-6.67 6.01 -6.34 5.02 -6 4 C-4.68 4 -3.36 4 -2 4 C-1.34 2.68 -0.68 1.36 0 0 Z " fill="#F9FDFC" transform="translate(157,132)"/>
<path d="M0 0 C5.75 -0.125 5.75 -0.125 8 1 C8 1.66 8 2.32 8 3 C8.66 3 9.32 3 10 3 C10.33 2.01 10.66 1.02 11 0 C11.33 2.31 11.66 4.62 12 7 C10.68 6.34 9.36 5.68 8 5 C7.67 5.66 7.34 6.32 7 7 C7.66 7 8.32 7 9 7 C8.67 7.99 8.34 8.98 8 10 C8 9.34 8 8.68 8 8 C7.34 8 6.68 8 6 8 C6 6.68 6 5.36 6 4 C3.03 3.505 3.03 3.505 0 3 C0 2.01 0 1.02 0 0 Z " fill="#F9EFE6" transform="translate(44,136)"/>
<path d="M0 0 C2.64 0 5.28 0 8 0 C7.01 1.98 6.02 3.96 5 6 C3.02 6 1.04 6 -1 6 C-0.67 4.02 -0.34 2.04 0 0 Z " fill="#FAF5EC" transform="translate(89,71)"/>
<path d="M0 0 C-2.40921705 2.40921705 -4.94334509 3.53812156 -8 5 C-7.67 5.66 -7.34 6.32 -7 7 C-8.75 7.6875 -8.75 7.6875 -11 8 C-13.25 6.5625 -13.25 6.5625 -15 5 C-13.35 5 -11.7 5 -10 5 C-9.566875 3.7934375 -9.566875 3.7934375 -9.125 2.5625 C-7.05707701 -2.14776903 -4.49406067 -0.87927274 0 0 Z " fill="#F49C36" transform="translate(104,72)"/>
<path d="M0 0 C3.41529114 0.2846076 4.78498424 0.79660671 7.3125 3.1875 C9.25629673 6.42716122 9.34530062 8.28801837 9 12 C8.896875 11.360625 8.79375 10.72125 8.6875 10.0625 C8.460625 9.381875 8.23375 8.70125 8 8 C7.01 7.67 6.02 7.34 5 7 C5 6.34 5 5.68 5 5 C3.35 5.66 1.7 6.32 0 7 C0 5 0 5 2 3 C2 2.34 2 1.68 2 1 C1.34 0.67 0.68 0.34 0 0 Z " fill="#F7E1D3" transform="translate(19,143)"/>
<path d="M0 0 C0.33 0.99 0.66 1.98 1 3 C2.29355827 4.37195574 3.62298702 5.71182656 5 7 C3.35 7 1.7 7 0 7 C0 6.34 0 5.68 0 5 C-0.66 5 -1.32 5 -2 5 C-2 5.66 -2 6.32 -2 7 C-2.99 7 -3.98 7 -5 7 C-5 5.02 -5 3.04 -5 1 C-2 0 -2 0 0 0 Z " fill="#F57417" transform="translate(78,122)"/>
<path d="M0 0 C0.99 0 1.98 0 3 0 C5.49977543 3.33303391 6 4.73303602 6 9 C4.02 8.34 2.04 7.68 0 7 C0 4.69 0 2.38 0 0 Z " fill="#F5B799" transform="translate(161,138)"/>
<path d="M0 0 C0.33 0 0.66 0 1 0 C1 1.98 1 3.96 1 6 C1.99 6 2.98 6 4 6 C4 5.34 4 4.68 4 4 C4.66 4 5.32 4 6 4 C6 4.66 6 5.32 6 6 C7.98 6 9.96 6 12 6 C12 6.33 12 6.66 12 7 C10.02 7 8.04 7 6 7 C6 8.98 6 10.96 6 13 C7.98 13 9.96 13 12 13 C12 13.33 12 13.66 12 14 C9.36 14 6.72 14 4 14 C4.33 11.69 4.66 9.38 5 7 C3.35 7 1.7 7 0 7 C0 4.69 0 2.38 0 0 Z " fill="#EF9968" transform="translate(72,123)"/>
<path d="M0 0 C2.875 -0.125 2.875 -0.125 6 0 C6.66 0.66 7.32 1.32 8 2 C3.5 5 3.5 5 -1 8 C-1.66 7.67 -2.32 7.34 -3 7 C-2.6875 5.0625 -2.6875 5.0625 -2 3 C-1.01 2.67 -0.02 2.34 1 2 C0.67 1.34 0.34 0.68 0 0 Z " fill="#F07D2C" transform="translate(149,128)"/>
<path d="M0 0 C-0.33 2.64 -0.66 5.28 -1 8 C-3.97 7.505 -3.97 7.505 -7 7 C-7 5.35 -7 3.7 -7 2 C-2.25 0 -2.25 0 0 0 Z " fill="#F9FAF9" transform="translate(78,52)"/>
<path d="M0 0 C1.65 0 3.3 0 5 0 C5.33 0.99 5.66 1.98 6 3 C6.33 3 6.66 3 7 3 C8.10228696 7.40914783 8.07654536 11.48382401 8 16 C7.67 16 7.34 16 7 16 C6.92523437 15.39671875 6.85046875 14.7934375 6.7734375 14.171875 C6.0944149 9.4116009 6.0944149 9.4116009 3.53125 5.51171875 C1.71981764 4.29312506 1.71981764 4.29312506 -1 3 C-0.67 2.01 -0.34 1.02 0 0 Z " fill="#EF6812" transform="translate(21,140)"/>
<path d="M0 0 C0.66 0.33 1.32 0.66 2 1 C2 1.66 2 2.32 2 3 C1.01 3.33 0.02 3.66 -1 4 C-1.33 4.66 -1.66 5.32 -2 6 C-1.34 6 -0.68 6 0 6 C-0.33 6.66 -0.66 7.32 -1 8 C-7.93 7.505 -7.93 7.505 -15 7 C-15 6.67 -15 6.34 -15 6 C-14.41992188 5.98582031 -13.83984375 5.97164063 -13.2421875 5.95703125 C-7.14244918 5.58460498 -4.32010398 4.32010398 0 0 Z " fill="#F9E0C6" transform="translate(102,64)"/>
<path d="M0 0 C2.31 0.33 4.62 0.66 7 1 C7.33 1.99 7.66 2.98 8 4 C3.375 6.125 3.375 6.125 0 5 C0 4.34 0 3.68 0 3 C0.66 3 1.32 3 2 3 C2 2.34 2 1.68 2 1 C1.34 0.67 0.68 0.34 0 0 Z " fill="#FAF8F5" transform="translate(14,143)"/>
<path d="M0 0 C1.98 0 3.96 0 6 0 C5.01 0.495 5.01 0.495 4 1 C4 1.66 4 2.32 4 3 C4.66 3 5.32 3 6 3 C6.33 4.32 6.66 5.64 7 7 C5.68 6.34 4.36 5.68 3 5 C2.67 5.66 2.34 6.32 2 7 C1.01 7 0.02 7 -1 7 C-0.649375 6.21625 -0.29875 5.4325 0.0625 4.625 C0.371875 3.75875 0.68125 2.8925 1 2 C0.67 1.34 0.34 0.68 0 0 Z " fill="#F67018" transform="translate(118,136)"/>
<path d="M0 0 C0.66 0 1.32 0 2 0 C2.33 1.98 2.66 3.96 3 6 C2.34 6 1.68 6 1 6 C1 10.95 1 15.9 1 21 C0.67 21 0.34 21 0 21 C-0.19461488 18.06281233 -0.38097593 15.12550068 -0.5625 12.1875 C-0.61857422 11.35412109 -0.67464844 10.52074219 -0.73242188 9.66210938 C-0.78076172 8.85966797 -0.82910156 8.05722656 -0.87890625 7.23046875 C-0.9260376 6.49207764 -0.97316895 5.75368652 -1.02172852 4.99291992 C-1 3 -1 3 0 0 Z " fill="#FBFAFB" transform="translate(129,136)"/>
<path d="M0 0 C0.66 0.33 1.32 0.66 2 1 C-0.1385485 3.1385485 -1.13275314 3.42655063 -4 4 C-3.01 5.485 -3.01 5.485 -2 7 C-3.65 7.33 -5.3 7.66 -7 8 C-7 7.01 -7 6.02 -7 5 C-7.66 4.67 -8.32 4.34 -9 4 C-7.54618103 3.30300448 -6.08677047 2.61766134 -4.625 1.9375 C-3.40683594 1.36322266 -3.40683594 1.36322266 -2.1640625 0.77734375 C-1.44992188 0.52082031 -0.73578125 0.26429687 0 0 Z " fill="#EF6D21" transform="translate(75,8)"/>
<path d="M0 0 C1.625 1.1875 1.625 1.1875 3 3 C3.1875 5.6875 3.1875 5.6875 3 8 C2.01 8 1.02 8 0 8 C0 7.34 0 6.68 0 6 C-0.66 6 -1.32 6 -2 6 C-2.66 4.35 -3.32 2.7 -4 1 C-2 0 -2 0 0 0 Z " fill="#FBF5F1" transform="translate(24,148)"/>
<path d="M0 0 C2 3 4 6 6 9 C3.66666667 9 1.33333333 9 -1 9 C-0.67 6.03 -0.34 3.06 0 0 Z " fill="#EF752A" transform="translate(146,150)"/>
<path d="M0 0 C2.25998595 3.59462331 2.20868087 6.56595675 2.125 10.75 C2.10695313 11.92046875 2.08890625 13.0909375 2.0703125 14.296875 C2.03550781 15.63492188 2.03550781 15.63492188 2 17 C1.34 16.34 0.68 15.68 0 15 C0 13.68 0 12.36 0 11 C-0.66 10.67 -1.32 10.34 -2 10 C-1.67 9.67 -1.34 9.34 -1 9 C-0.76807135 7.48530552 -0.58784762 5.96245438 -0.4375 4.4375 C-0.35371094 3.61121094 -0.26992188 2.78492188 -0.18359375 1.93359375 C-0.12300781 1.29550781 -0.06242187 0.65742188 0 0 Z " fill="#F2742F" transform="translate(62,143)"/>
<path d="M0 0 C2.97 0 5.94 0 9 0 C9.33 2.31 9.66 4.62 10 7 C9.52949219 6.66226563 9.05898437 6.32453125 8.57421875 5.9765625 C7.95160156 5.53054687 7.32898438 5.08453125 6.6875 4.625 C6.07261719 4.18414062 5.45773438 3.74328125 4.82421875 3.2890625 C3.2347608 2.16589093 1.61937829 1.07958553 0 0 Z " fill="#F37620" transform="translate(166,128)"/>
<path d="M0 0 C0.33 0 0.66 0 1 0 C1 2.31 1 4.62 1 7 C0.34 7 -0.32 7 -1 7 C-1.33 9.31 -1.66 11.62 -2 14 C-2.33 13.01 -2.66 12.02 -3 11 C-3.99 10.67 -4.98 10.34 -6 10 C-5.34 8.68 -4.68 7.36 -4 6 C-2.68 6 -1.36 6 0 6 C0 4.02 0 2.04 0 0 Z " fill="#F27315" transform="translate(64,122)"/>
<path d="M0 0 C0.28875 0.61875 0.5775 1.2375 0.875 1.875 C2.63411124 5.19776568 4.68335854 6.45223399 8 8 C5.69 8 3.38 8 1 8 C1 9.65 1 11.3 1 13 C0.67 13 0.34 13 0 13 C-0.19551338 11.39679026 -0.38111983 9.79237014 -0.5625 8.1875 C-0.71912109 6.84751953 -0.71912109 6.84751953 -0.87890625 5.48046875 C-1 3 -1 3 0 0 Z " fill="#F4741D" transform="translate(135,121)"/>
<path d="M0 0 C0.66 0 1.32 0 2 0 C2.66 1.98 3.32 3.96 4 6 C3.34 6.66 2.68 7.32 2 8 C1.01 8 0.02 8 -1 8 C-1 7.34 -1 6.68 -1 6 C-1.66 6 -2.32 6 -3 6 C-2.67 5.01 -2.34 4.02 -2 3 C-1.01 3 -0.02 3 1 3 C0.67 2.01 0.34 1.02 0 0 Z " fill="#F9F9F7" transform="translate(103,64)"/>
<path d="M0 0 C0.94875 0.350625 1.8975 0.70125 2.875 1.0625 C2.875 2.3825 2.875 3.7025 2.875 5.0625 C1.225 4.7325 -0.425 4.4025 -2.125 4.0625 C-2.125 3.4025 -2.125 2.7425 -2.125 2.0625 C-3.115 2.0625 -4.105 2.0625 -5.125 2.0625 C-5.125 1.4025 -5.125 0.7425 -5.125 0.0625 C-3.125 -0.9375 -3.125 -0.9375 0 0 Z " fill="#F47C1B" transform="translate(141.125,113.9375)"/>
<path d="M0 0 C1.95418308 2.93127462 2.64700993 4.55834679 3 8 C2.34 8.66 1.68 9.32 1 10 C0.01 10 -0.98 10 -2 10 C-2.33 8.68 -2.66 7.36 -3 6 C-2.34 5.67 -1.68 5.34 -1 5 C-0.34444881 2.47266765 -0.34444881 2.47266765 0 0 Z " fill="#F3712B" transform="translate(29,150)"/>
<path d="M0 0 C-0.99 0.495 -0.99 0.495 -2 1 C-1.67 1.66 -1.34 2.32 -1 3 C-1.94875 3.309375 -2.8975 3.61875 -3.875 3.9375 C-6.86080408 4.87394742 -6.86080408 4.87394742 -9 6 C-9 5.34 -9 4.68 -9 4 C-9.66 3.67 -10.32 3.34 -11 3 C-7.17860188 -0.1390056 -4.83859894 -1.61286631 0 0 Z " fill="#F18231" transform="translate(76,113)"/>
<path d="M0 0 C0 0.99 0 1.98 0 3 C-0.99 3.33 -1.98 3.66 -3 4 C-3.28875 4.598125 -3.5775 5.19625 -3.875 5.8125 C-5.35537318 8.69100341 -7.42278571 10.10099999 -10 12 C-10 9 -10 9 -7.8125 6.5625 C-5.28225355 4.25716434 -2.70944196 2.09014094 0 0 Z " fill="#FB9725" transform="translate(58,15)"/>
<path d="M0 0 C1.65 0 3.3 0 5 0 C5 1.65 5 3.3 5 5 C4.01 5.495 4.01 5.495 3 6 C2.01 5.67 1.02 5.34 0 5 C0 3.35 0 1.7 0 0 Z " fill="#F8F3ED" transform="translate(2,152)"/>
<path d="M0 0 C1.8125 0.75 1.8125 0.75 2.8125 2.75 C2.19375 2.894375 1.575 3.03875 0.9375 3.1875 C-1.22008322 3.68152225 -1.22008322 3.68152225 -3.1875 4.75 C-3.5175 5.41 -3.8475 6.07 -4.1875 6.75 C-4.8475 5.1 -5.5075 3.45 -6.1875 1.75 C-3.9127187 0.36888278 -2.68578639 -0.30694702 0 0 Z " fill="#F6EBE4" transform="translate(103.1875,41.25)"/>
<path d="M0 0 C1.4370809 -0.05422947 2.87475462 -0.09289723 4.3125 -0.125 C5.11300781 -0.14820313 5.91351563 -0.17140625 6.73828125 -0.1953125 C9 0 9 0 12 2 C7.375 4.125 7.375 4.125 4 3 C2.64377755 2.03126968 1.30582947 1.03565785 0 0 Z " fill="#FCF2ED" transform="translate(117,129)"/>
<path d="M0 0 C-0.33 1.65 -0.66 3.3 -1 5 C-1.66 4.67 -2.32 4.34 -3 4 C-5.3329866 3.95977609 -7.66706666 3.95679753 -10 4 C-7.26634436 -0.10048346 -4.7993062 -1.59976873 0 0 Z " fill="#EF8D4A" transform="translate(147,126)"/>
<path d="M0 0 C0.33 0 0.66 0 1 0 C1 1.65 1 3.3 1 5 C1.9590625 4.7215625 1.9590625 4.7215625 2.9375 4.4375 C3.618125 4.293125 4.29875 4.14875 5 4 C5.33 4.33 5.66 4.66 6 5 C6.33 3.35 6.66 1.7 7 0 C7.33 0 7.66 0 8 0 C8 2.31 8 4.62 8 7 C7.34 7 6.68 7 6 7 C5.67 7.99 5.34 8.98 5 10 C4.67 9.01 4.34 8.02 4 7 C1.98491642 6.26676204 1.98491642 6.26676204 0 6 C0 4.02 0 2.04 0 0 Z " fill="#FAD8B9" transform="translate(70,54)"/>
<path d="M0 0 C0.99 0.33 1.98 0.66 3 1 C2.67 1.99 2.34 2.98 2 4 C0.68 3.67 -0.64 3.34 -2 3 C-2 3.99 -2 4.98 -2 6 C-3.98 6.33 -5.96 6.66 -8 7 C-6 4 -6 4 -4 3 C-3.360625 2.46375 -2.72125 1.9275 -2.0625 1.375 C-1.381875 0.92125 -0.70125 0.4675 0 0 Z " fill="#FAEBDD" transform="translate(59,149)"/>
<path d="M0 0 C0.33 0 0.66 0 1 0 C1 1.65 1 3.3 1 5 C1.66 5.33 2.32 5.66 3 6 C2.67 7.65 2.34 9.3 2 11 C-1.89847716 7.7106599 -1.89847716 7.7106599 -2.375 4.375 C-2 2 -2 2 0 0 Z " fill="#F68143" transform="translate(62,131)"/>
<path d="M0 0 C1.65 0 3.3 0 5 0 C5 1.98 5 3.96 5 6 C3.68 6.33 2.36 6.66 1 7 C0.67 4.69 0.34 2.38 0 0 Z " fill="#F67C22" transform="translate(92,120)"/>
<path d="M0 0 C0.66 0 1.32 0 2 0 C2.36541918 4.26322371 1.49759276 6.54179464 -1 10 C-1.99 10.495 -1.99 10.495 -3 11 C-3.39253254 6.55129785 -2.15305957 3.85756507 0 0 Z " fill="#F07C1E" transform="translate(45,32)"/>
<path d="M0 0 C1.423125 0.2165625 1.423125 0.2165625 2.875 0.4375 C7.56740347 1.11197278 12.28134412 1.55376896 17 2 C17 2.33 17 2.66 17 3 C11.06 3 5.12 3 -1 3 C-0.67 2.01 -0.34 1.02 0 0 Z " fill="#F79C22" transform="translate(81,3)"/>
<path d="M0 0 C3.3 0.33 6.6 0.66 10 1 C9.67 1.99 9.34 2.98 9 4 C9.99 4.33 10.98 4.66 12 5 C11.01 5.33 10.02 5.66 9 6 C8.01 5.34 7.02 4.68 6 4 C6 3.34 6 2.68 6 2 C3.03 1.505 3.03 1.505 0 1 C0 0.67 0 0.34 0 0 Z " fill="#F7F5EF" transform="translate(8,155)"/>
<path d="M0 0 C1.98 0 3.96 0 6 0 C5.67 1.65 5.34 3.3 5 5 C3.68 5 2.36 5 1 5 C0.67 3.35 0.34 1.7 0 0 Z " fill="#F67C32" transform="translate(91,136)"/>
<path d="M0 0 C2.97 0.495 2.97 0.495 6 1 C6.33 1.99 6.66 2.98 7 4 C5.02 4 3.04 4 1 4 C1 5.65 1 7.3 1 9 C0.67 9 0.34 9 0 9 C0 6.03 0 3.06 0 0 Z " fill="#F38A49" transform="translate(97,126)"/>
<path d="M0 0 C0.86625 0.3403125 0.86625 0.3403125 1.75 0.6875 C0.76 1.1825 0.76 1.1825 -0.25 1.6875 C0.74 2.3475 1.73 3.0075 2.75 3.6875 C-0.03823655 4.7201802 -1.1177274 4.73259293 -4 3.75 C-4.7425 3.399375 -5.485 3.04875 -6.25 2.6875 C-2.80384615 -0.38942308 -2.80384615 -0.38942308 0 0 Z " fill="#F79928" transform="translate(101.25,74.3125)"/>
<path d="M0 0 C-0.928125 0.86625 -0.928125 0.86625 -1.875 1.75 C-3.81347053 3.80249821 -4.90014249 5.43366582 -6 8 C-6 7.01 -6 6.02 -6 5 C-6.66 5 -7.32 5 -8 5 C-8 4.01 -8 3.02 -8 2 C-4.77208445 -0.1519437 -3.71599191 -0.20086443 0 0 Z " fill="#FAE6D6" transform="translate(111,59)"/>
<path d="M0 0 C1.65 0 3.3 0 5 0 C5.33 0.99 5.66 1.98 6 3 C2.01803543 4.05404945 -0.98195309 3.84098656 -5 3 C-5 2.67 -5 2.34 -5 2 C-3.35 2 -1.7 2 0 2 C0 1.34 0 0.68 0 0 Z " fill="#F0712F" transform="translate(138,161)"/>
<path d="M0 0 C0.66 0 1.32 0 2 0 C2.33 1.65 2.66 3.3 3 5 C4.98 5 6.96 5 9 5 C9 5.33 9 5.66 9 6 C2.47692308 6.36923077 2.47692308 6.36923077 0.0625 4.5 C-0.4634375 3.7575 -0.4634375 3.7575 -1 3 C-0.67 2.01 -0.34 1.02 0 0 Z " fill="#ED8740" transform="translate(105,124)"/>
<path d="M0 0 C0.99 0.33 1.98 0.66 3 1 C1.29171079 3.10633718 0.47851584 3.93801608 -2.26171875 4.29296875 C-3.06222656 4.25816406 -3.86273438 4.22335938 -4.6875 4.1875 C-5.49574219 4.16042969 -6.30398437 4.13335937 -7.13671875 4.10546875 C-7.75160156 4.07066406 -8.36648437 4.03585938 -9 4 C-9 3.67 -9 3.34 -9 3 C-8.071875 2.87625 -7.14375 2.7525 -6.1875 2.625 C-2.86074765 2.18466918 -2.86074765 2.18466918 0 0 Z " fill="#F2981B" transform="translate(96,66)"/>
<path d="M0 0 C0.99 0 1.98 0 3 0 C2.01 3.3 1.02 6.6 0 10 C-1.66666667 3.33333333 -1.66666667 3.33333333 0 0 Z " fill="#F59132" transform="translate(109,61)"/>
<path d="M0 0 C1.98 0.495 1.98 0.495 4 1 C4 2.32 4 3.64 4 5 C2.35 4.67 0.7 4.34 -1 4 C-0.67 2.68 -0.34 1.36 0 0 Z " fill="#F7FCF7" transform="translate(107,54)"/>
<path d="M0 0 C1.65 0 3.3 0 5 0 C5.33 1.32 5.66 2.64 6 4 C3.36 3.67 0.72 3.34 -2 3 C-1.34 2.67 -0.68 2.34 0 2 C0 1.34 0 0.68 0 0 Z " fill="#F27519" transform="translate(90,32)"/>
<path d="M0 0 C0.99 0.33 1.98 0.66 3 1 C2.67 2.32 2.34 3.64 2 5 C0.68 4.67 -0.64 4.34 -2 4 C-1.34 2.68 -0.68 1.36 0 0 Z " fill="#F7EBE0" transform="translate(45,142)"/>
<path d="M0 0 C2.97 0.495 2.97 0.495 6 1 C4.68 2.32 3.36 3.64 2 5 C1.34 4.67 0.68 4.34 0 4 C0 2.68 0 1.36 0 0 Z " fill="#F17B2A" transform="translate(30,130)"/>
<path d="M0 0 C3.3 0 6.6 0 10 0 C10 1.32 10 2.64 10 4 C9.46375 3.690625 8.9275 3.38125 8.375 3.0625 C5.6015043 1.82172561 2.99957163 1.4090325 0 1 C0 0.67 0 0.34 0 0 Z " fill="#F9E2D5" transform="translate(119,135)"/>
<path d="M0 0 C0.99 0 1.98 0 3 0 C3.33 1.32 3.66 2.64 4 4 C3.34 4 2.68 4 2 4 C1.67 4.99 1.34 5.98 1 7 C0.67 7 0.34 7 0 7 C0 4.69 0 2.38 0 0 Z " fill="#F37D24" transform="translate(72,40)"/>
<path d="M0 0 C2.475 0.99 2.475 0.99 5 2 C5 2.66 5 3.32 5 4 C3.02 4.33 1.04 4.66 -1 5 C-0.67 3.35 -0.34 1.7 0 0 Z " fill="#F26D22" transform="translate(110,11)"/>
<path d="M0 0 C2.475 0.495 2.475 0.495 5 1 C5 2.32 5 3.64 5 5 C2 4 2 4 0 3 C0 2.01 0 1.02 0 0 Z " fill="#F07B39" transform="translate(16,149)"/>
</svg>
